<?xml version="1.0" standalone="no"?>
<!DOCTYPE svg PUBLIC "-//W3C//DTD SVG 20010904//EN"
 "http://www.w3.org/TR/2001/REC-SVG-20010904/DTD/svg10.dtd">
<svg version="1.0" xmlns="http://www.w3.org/2000/svg"
 width="383.000000pt" height="383.000000pt" viewBox="0 0 383.000000 383.000000"
 preserveAspectRatio="xMidYMid meet">
<metadata>
Created by potrace 1.11, written by Peter Selinger 2001-2013
</metadata>
<g transform="translate(0.000000,383.000000) scale(0.100000,-0.100000)"
fill="#000000" stroke="none">
<path d="M1573 3757 c-32 -40 -60 -74 -63 -77 -6 -5 -123 -145 -205 -245 -123
-150 -259 -312 -274 -325 -9 -8 -72 -83 -141 -165 -68 -83 -127 -152 -130
-155 -3 -3 -27 -32 -55 -65 -27 -33 -52 -62 -55 -65 -3 -3 -22 -26 -43 -52
-21 -26 -43 -53 -50 -60 -7 -7 -57 -67 -112 -133 -55 -66 -104 -125 -110 -131
-11 -12 -44 -52 -188 -223 -59 -70 -93 -119 -88 -125 52 -68 318 -404 326
-412 5 -7 53 -67 105 -134 52 -68 112 -144 133 -169 20 -25 41 -50 45 -56 8
-11 529 -670 549 -695 7 -8 35 -44 63 -80 28 -36 62 -78 76 -95 13 -16 67 -85
120 -153 l96 -122 212 -1 c116 0 326 -2 466 -4 741 -11 1100 -14 1100 -7 0 5
-203 265 -279 357 -9 11 -39 49 -66 85 -28 36 -52 67 -55 70 -5 4 -198 248
-269 339 -21 27 -130 164 -164 206 -4 6 -39 51 -78 100 -39 50 -78 99 -88 110
-31 39 -346 438 -385 489 -21 28 -58 74 -81 101 l-43 51 32 36 c17 20 86 103
153 184 67 82 134 164 150 183 15 19 131 158 256 310 126 152 236 285 245 296
10 11 60 72 112 135 52 63 131 158 174 210 44 52 83 100 88 105 4 6 25 30 45
55 21 25 54 66 75 90 20 25 82 100 137 168 l102 122 -133 1 c-73 0 -281 2
-463 4 -181 3 -522 7 -757 9 l-426 5 -59 -72z"/>
<path d="M2594 2218 c-65 -79 -123 -148 -129 -154 -12 -14 -36 -42 -95 -114
-25 -30 -51 -61 -58 -69 -8 -8 -9 -18 -4 -25 62 -78 460 -594 497 -643 8 -11
28 8 90 83 44 54 85 102 90 108 6 6 40 47 75 91 36 44 67 82 71 85 3 3 83 100
179 215 96 116 177 212 180 215 3 3 25 30 50 60 25 30 47 57 50 60 3 3 35 41
70 85 36 44 67 82 70 85 3 3 13 15 23 26 l18 22 -128 1 c-70 1 -308 4 -529 7
l-401 4 -119 -142z"/>
</g>
</svg>
